<svg xmlns="http://www.w3.org/2000/svg" xmlns:xlink="http://www.w3.org/1999/xlink" width="1116.905" height="619" version="1.1"><g><g transform="translate(-318,-174) scale(1,1)"><rect width="79.335" height="15" x="575" y="415" fill="silver" stroke="none" opacity=".2"/></g><g transform="translate(-318,-174) scale(1,1)"><rect width="198.338" height="25" x="575" y="429" fill="silver" stroke="none" opacity=".2"/></g><g transform="translate(-318,-174) scale(1,1)"><rect width="198.338" height="24" x="568" y="423" fill="#fff" stroke="none"/></g><g><path fill="none" stroke="#000" stroke-miterlimit="10" d="M 568 423 L 766.337890625 423 L 766.337890625 447 L 568 447 L 568 423 Z Z" transform="translate(-318,-174) scale(1,1)"/></g><g transform="translate(-318,-174) scale(1,1)"><rect width="79.335" height="15" x="568" y="408" fill="#fff" stroke="none"/></g><g><path fill="none" stroke="#000" stroke-miterlimit="10" d="M 568 408 L 647.33515625 408 L 647.33515625 423 L 568 423 L 568 408 Z Z" transform="translate(-318,-174) scale(1,1)"/></g><g transform="translate(-318,-174) scale(1,1)"><rect width="198.338" height="25" x="568" y="422" fill="#fff" stroke="none"/></g><g><path fill="none" stroke="#000" stroke-miterlimit="10" d="M 568 422 L 766.337890625 422 L 766.337890625 447 L 568 447 L 568 422 Z Z" transform="translate(-318,-174) scale(1,1)"/></g><g><g><path fill="none" stroke="none" transform="translate(-318,-174) scale(1,1)"/><text x="584.169" y="442.5" fill="#000" stroke="none" font-family="Arial" font-size="13" font-style="normal" font-weight="bold" text-decoration="none" transform="translate(-318,-174) scale(1,1)">IdentityAccessDomainModel</text></g></g><g transform="translate(-318,-174) scale(1,1)"><rect width="93.958" height="15" x="687" y="751" fill="silver" stroke="none" opacity=".2"/></g><g transform="translate(-318,-174) scale(1,1)"><rect width="234.894" height="25" x="687" y="765" fill="silver" stroke="none" opacity=".2"/></g><g transform="translate(-318,-174) scale(1,1)"><rect width="234.894" height="24" x="680" y="759" fill="#fff" stroke="none"/></g><g><path fill="none" stroke="#000" stroke-miterlimit="10" d="M 680 759 L 914.89404296875 759 L 914.89404296875 783 L 680 783 L 680 759 Z Z" transform="translate(-318,-174) scale(1,1)"/></g><g transform="translate(-318,-174) scale(1,1)"><rect width="93.958" height="15" x="680" y="744" fill="#fff" stroke="none"/></g><g><path fill="none" stroke="#000" stroke-miterlimit="10" d="M 680 744 L 773.9576171875 744 L 773.9576171875 759 L 680 759 L 680 744 Z Z" transform="translate(-318,-174) scale(1,1)"/></g><g transform="translate(-318,-174) scale(1,1)"><rect width="234.894" height="25" x="680" y="758" fill="#fff" stroke="none"/></g><g><path fill="none" stroke="#000" stroke-miterlimit="10" d="M 680 758 L 914.89404296875 758 L 914.89404296875 783 L 680 783 L 680 758 Z Z" transform="translate(-318,-174) scale(1,1)"/></g><g><g><path fill="none" stroke="none" transform="translate(-318,-174) scale(1,1)"/><text x="697.947" y="778.5" fill="#000" stroke="none" font-family="Arial" font-size="13" font-style="normal" font-weight="bold" text-decoration="none" transform="translate(-318,-174) scale(1,1)">IdentityAccessDomainModelTests</text></g></g><g transform="translate(-318,-174) scale(1,1)"><rect width="87.554" height="15" x="871" y="519" fill="silver" stroke="none" opacity=".2"/></g><g transform="translate(-318,-174) scale(1,1)"><rect width="218.885" height="25" x="871" y="533" fill="silver" stroke="none" opacity=".2"/></g><g transform="translate(-318,-174) scale(1,1)"><rect width="218.885" height="24" x="864" y="527" fill="#fff" stroke="none"/></g><g><path fill="none" stroke="#000" stroke-miterlimit="10" d="M 864 527 L 1082.88525390625 527 L 1082.88525390625 551 L 864 551 L 864 527 Z Z" transform="translate(-318,-174) scale(1,1)"/></g><g transform="translate(-318,-174) scale(1,1)"><rect width="87.554" height="15" x="864" y="512" fill="#fff" stroke="none"/></g><g><path fill="none" stroke="#000" stroke-miterlimit="10" d="M 864 512 L 951.5541015625 512 L 951.5541015625 527 L 864 527 L 864 512 Z Z" transform="translate(-318,-174) scale(1,1)"/></g><g transform="translate(-318,-174) scale(1,1)"><rect width="218.885" height="25" x="864" y="526" fill="#fff" stroke="none"/></g><g><path fill="none" stroke="#000" stroke-miterlimit="10" d="M 864 526 L 1082.88525390625 526 L 1082.88525390625 551 L 864 551 L 864 526 Z Z" transform="translate(-318,-174) scale(1,1)"/></g><g><g><path fill="none" stroke="none" transform="translate(-318,-174) scale(1,1)"/><text x="881.943" y="546.5" fill="#000" stroke="none" font-family="Arial" font-size="13" font-style="normal" font-weight="bold" text-decoration="none" transform="translate(-318,-174) scale(1,1)">IdentityAccessImplementations</text></g></g><g transform="translate(-318,-174) scale(1,1)"><rect width="60.198" height="15" x="599" y="591" fill="silver" stroke="none" opacity=".2"/></g><g transform="translate(-318,-174) scale(1,1)"><rect width="150.496" height="25" x="599" y="605" fill="silver" stroke="none" opacity=".2"/></g><g transform="translate(-318,-174) scale(1,1)"><rect width="150.496" height="24" x="592" y="599" fill="#fff" stroke="none"/></g><g><path fill="none" stroke="#000" stroke-miterlimit="10" d="M 592 599 L 742.49560546875 599 L 742.49560546875 623 L 592 623 L 592 599 Z Z" transform="translate(-318,-174) scale(1,1)"/></g><g transform="translate(-318,-174) scale(1,1)"><rect width="60.198" height="15" x="592" y="584" fill="#fff" stroke="none"/></g><g><path fill="none" stroke="#000" stroke-miterlimit="10" d="M 592 584 L 652.1982421875 584 L 652.1982421875 599 L 592 599 L 592 584 Z Z" transform="translate(-318,-174) scale(1,1)"/></g><g transform="translate(-318,-174) scale(1,1)"><rect width="150.496" height="25" x="592" y="598" fill="#fff" stroke="none"/></g><g><path fill="none" stroke="#000" stroke-miterlimit="10" d="M 592 598 L 742.49560546875 598 L 742.49560546875 623 L 592 623 L 592 598 Z Z" transform="translate(-318,-174) scale(1,1)"/></g><g><g><path fill="none" stroke="none" transform="translate(-318,-174) scale(1,1)"/><text x="605.748" y="618.5" fill="#000" stroke="none" font-family="Arial" font-size="13" font-style="normal" font-weight="bold" text-decoration="none" transform="translate(-318,-174) scale(1,1)">CommonTestSupport</text></g></g><g><path fill="none" stroke="#000" stroke-dasharray="3" stroke-miterlimit="10" d="M 812 743 L 957 552" transform="translate(-318,-174) scale(1,1)"/></g><g><path fill="none" stroke="#000" stroke-miterlimit="10" d="M 954.2078459038833 562.639730988307 L 957 552 L 947.5022229726856 557.5490748363505" transform="translate(-318,-174) scale(1,1)"/></g><g><path fill="none" stroke="#000" stroke-dasharray="3" stroke-miterlimit="10" d="M 789 743 L 675 448" transform="translate(-318,-174) scale(1,1)"/></g><g><path fill="none" stroke="#000" stroke-miterlimit="10" d="M 682.5897847449753 455.9621082336866 L 675 448 L 674.7367275363372 458.9968489854993" transform="translate(-318,-174) scale(1,1)"/></g><g><path fill="none" stroke="#000" stroke-dasharray="3" stroke-miterlimit="10" d="M 781 743 L 684 624" transform="translate(-318,-174) scale(1,1)"/></g><g><path fill="none" stroke="#000" stroke-miterlimit="10" d="M 693.6838282266593 629.217611606526 L 684 624 L 687.1580920583443 634.5369091554887" transform="translate(-318,-174) scale(1,1)"/></g><g transform="translate(-318,-174) scale(1,1)"><rect width="99.236" height="15" x="959" y="743" fill="silver" stroke="none" opacity=".2"/></g><g transform="translate(-318,-174) scale(1,1)"><rect width="248.091" height="25" x="959" y="757" fill="silver" stroke="none" opacity=".2"/></g><g transform="translate(-318,-174) scale(1,1)"><rect width="248.091" height="24" x="952" y="751" fill="#fff" stroke="none"/></g><g><path fill="none" stroke="#000" stroke-miterlimit="10" d="M 952 751 L 1200.0908203125 751 L 1200.0908203125 775 L 952 775 L 952 751 Z Z" transform="translate(-318,-174) scale(1,1)"/></g><g transform="translate(-318,-174) scale(1,1)"><rect width="99.236" height="15" x="952" y="736" fill="#fff" stroke="none"/></g><g><path fill="none" stroke="#000" stroke-miterlimit="10" d="M 952 736 L 1051.236328125 736 L 1051.236328125 751 L 952 751 L 952 736 Z Z" transform="translate(-318,-174) scale(1,1)"/></g><g transform="translate(-318,-174) scale(1,1)"><rect width="248.091" height="25" x="952" y="750" fill="#fff" stroke="none"/></g><g><path fill="none" stroke="#000" stroke-miterlimit="10" d="M 952 750 L 1200.0908203125 750 L 1200.0908203125 775 L 952 775 L 952 750 Z Z" transform="translate(-318,-174) scale(1,1)"/></g><g><g><path fill="none" stroke="none" transform="translate(-318,-174) scale(1,1)"/><text x="971.545" y="770.5" fill="#000" stroke="none" font-family="Arial" font-size="13" font-style="normal" font-weight="bold" text-decoration="none" transform="translate(-318,-174) scale(1,1)">IdentityAccessImplementationTests</text></g></g><g><path fill="none" stroke="#000" stroke-dasharray="3" stroke-miterlimit="10" d="M 1067 735 L 983 552" transform="translate(-318,-174) scale(1,1)"/></g><g><path fill="none" stroke="#000" stroke-miterlimit="10" d="M 991.0652734029579 559.4800645007606 L 983 552 L 983.4138051831544 562.9922138475557" transform="translate(-318,-174) scale(1,1)"/></g><g transform="translate(-318,-174) scale(1,1)"><rect width="72.139" height="15" x="1215" y="519" fill="silver" stroke="none" opacity=".2"/></g><g transform="translate(-318,-174) scale(1,1)"><rect width="180.349" height="25" x="1215" y="533" fill="silver" stroke="none" opacity=".2"/></g><g transform="translate(-318,-174) scale(1,1)"><rect width="180.349" height="24" x="1208" y="527" fill="#fff" stroke="none"/></g><g><path fill="none" stroke="#000" stroke-miterlimit="10" d="M 1208 527 L 1388.3486328125 527 L 1388.3486328125 551 L 1208 551 L 1208 527 Z Z" transform="translate(-318,-174) scale(1,1)"/></g><g transform="translate(-318,-174) scale(1,1)"><rect width="72.139" height="15" x="1208" y="512" fill="#fff" stroke="none"/></g><g><path fill="none" stroke="#000" stroke-miterlimit="10" d="M 1208 512 L 1280.139453125 512 L 1280.139453125 527 L 1208 527 L 1208 512 Z Z" transform="translate(-318,-174) scale(1,1)"/></g><g transform="translate(-318,-174) scale(1,1)"><rect width="180.349" height="25" x="1208" y="526" fill="#fff" stroke="none"/></g><g><path fill="none" stroke="#000" stroke-miterlimit="10" d="M 1208 526 L 1388.3486328125 526 L 1388.3486328125 551 L 1208 551 L 1208 526 Z Z" transform="translate(-318,-174) scale(1,1)"/></g><g><g><path fill="none" stroke="none" transform="translate(-318,-174) scale(1,1)"/><text x="1224.174" y="546.5" fill="#000" stroke="none" font-family="Arial" font-size="13" font-style="normal" font-weight="bold" text-decoration="none" transform="translate(-318,-174) scale(1,1)">IdentityAccessIntegration</text></g></g><g transform="translate(-318,-174) scale(1,1)"><rect width="86.762" height="15" x="1215" y="743" fill="silver" stroke="none" opacity=".2"/></g><g transform="translate(-318,-174) scale(1,1)"><rect width="216.905" height="25" x="1215" y="757" fill="silver" stroke="none" opacity=".2"/></g><g transform="translate(-318,-174) scale(1,1)"><rect width="216.905" height="24" x="1208" y="751" fill="#fff" stroke="none"/></g><g><path fill="none" stroke="#000" stroke-miterlimit="10" d="M 1208 751 L 1424.90478515625 751 L 1424.90478515625 775 L 1208 775 L 1208 751 Z Z" transform="translate(-318,-174) scale(1,1)"/></g><g transform="translate(-318,-174) scale(1,1)"><rect width="86.762" height="15" x="1208" y="736" fill="#fff" stroke="none"/></g><g><path fill="none" stroke="#000" stroke-miterlimit="10" d="M 1208 736 L 1294.7619140625 736 L 1294.7619140625 751 L 1208 751 L 1208 736 Z Z" transform="translate(-318,-174) scale(1,1)"/></g><g transform="translate(-318,-174) scale(1,1)"><rect width="216.905" height="25" x="1208" y="750" fill="#fff" stroke="none"/></g><g><path fill="none" stroke="#000" stroke-miterlimit="10" d="M 1208 750 L 1424.90478515625 750 L 1424.90478515625 775 L 1208 775 L 1208 750 Z Z" transform="translate(-318,-174) scale(1,1)"/></g><g><g><path fill="none" stroke="none" transform="translate(-318,-174) scale(1,1)"/><text x="1225.952" y="770.5" fill="#000" stroke="none" font-family="Arial" font-size="13" font-style="normal" font-weight="bold" text-decoration="none" transform="translate(-318,-174) scale(1,1)">IdentityAccessIntegrationTests</text></g></g><g><path fill="none" stroke="#000" stroke-dasharray="3" stroke-miterlimit="10" d="M 1314 735 L 1300 552" transform="translate(-318,-174) scale(1,1)"/></g><g><path fill="none" stroke="#000" stroke-miterlimit="10" d="M 1304.9724602983438 561.8119640532053 L 1300 552 L 1296.5779540773597 562.45416671492" transform="translate(-318,-174) scale(1,1)"/></g><g><path fill="none" stroke="#000" stroke-dasharray="3" stroke-miterlimit="10" d="M 1285 735 L 1005 552" transform="translate(-318,-174) scale(1,1)"/></g><g><path fill="none" stroke="#000" stroke-miterlimit="10" d="M 1015.8098980789491 554.0361983014267 L 1005 552 L 1011.203942608781 561.0835618623397" transform="translate(-318,-174) scale(1,1)"/></g><g transform="translate(-318,-174) scale(1,1)"><rect width="72.921" height="15" x="335" y="479" fill="silver" stroke="none" opacity=".2"/></g><g transform="translate(-318,-174) scale(1,1)"><rect width="182.304" height="25" x="335" y="493" fill="silver" stroke="none" opacity=".2"/></g><g transform="translate(-318,-174) scale(1,1)"><rect width="182.304" height="24" x="328" y="487" fill="#fff" stroke="none"/></g><g><path fill="none" stroke="#000" stroke-miterlimit="10" d="M 328 487 L 510.3037109375 487 L 510.3037109375 511 L 328 511 L 328 487 Z Z" transform="translate(-318,-174) scale(1,1)"/></g><g transform="translate(-318,-174) scale(1,1)"><rect width="72.921" height="15" x="328" y="472" fill="#fff" stroke="none"/></g><g><path fill="none" stroke="#000" stroke-miterlimit="10" d="M 328 472 L 400.921484375 472 L 400.921484375 487 L 328 487 L 328 472 Z Z" transform="translate(-318,-174) scale(1,1)"/></g><g transform="translate(-318,-174) scale(1,1)"><rect width="182.304" height="25" x="328" y="486" fill="#fff" stroke="none"/></g><g><path fill="none" stroke="#000" stroke-miterlimit="10" d="M 328 486 L 510.3037109375 486 L 510.3037109375 511 L 328 511 L 328 486 Z Z" transform="translate(-318,-174) scale(1,1)"/></g><g><g><path fill="none" stroke="none" transform="translate(-318,-174) scale(1,1)"/><text x="343.652" y="506.5" fill="#000" stroke="none" font-family="Arial" font-size="13" font-style="normal" font-weight="bold" text-decoration="none" transform="translate(-318,-174) scale(1,1)">IdentityAccessApplication</text></g></g><g><path fill="none" stroke="#000" stroke-dasharray="3" stroke-miterlimit="10" d="M 497 471 L 586 448" transform="translate(-318,-174) scale(1,1)"/></g><g><path fill="none" stroke="#000" stroke-miterlimit="10" d="M 577.2138266978693 454.6183954781296 L 586 448 L 575.1073249542234 446.46714960054305" transform="translate(-318,-174) scale(1,1)"/></g><g transform="translate(-318,-174) scale(1,1)"><rect width="87.544" height="15" x="439" y="751" fill="silver" stroke="none" opacity=".2"/></g><g transform="translate(-318,-174) scale(1,1)"><rect width="218.86" height="25" x="439" y="765" fill="silver" stroke="none" opacity=".2"/></g><g transform="translate(-318,-174) scale(1,1)"><rect width="218.86" height="24" x="432" y="759" fill="#fff" stroke="none"/></g><g><path fill="none" stroke="#000" stroke-miterlimit="10" d="M 432 759 L 650.85986328125 759 L 650.85986328125 783 L 432 783 L 432 759 Z Z" transform="translate(-318,-174) scale(1,1)"/></g><g transform="translate(-318,-174) scale(1,1)"><rect width="87.544" height="15" x="432" y="744" fill="#fff" stroke="none"/></g><g><path fill="none" stroke="#000" stroke-miterlimit="10" d="M 432 744 L 519.5439453125 744 L 519.5439453125 759 L 432 759 L 432 744 Z Z" transform="translate(-318,-174) scale(1,1)"/></g><g transform="translate(-318,-174) scale(1,1)"><rect width="218.86" height="25" x="432" y="758" fill="#fff" stroke="none"/></g><g><path fill="none" stroke="#000" stroke-miterlimit="10" d="M 432 758 L 650.85986328125 758 L 650.85986328125 783 L 432 783 L 432 758 Z Z" transform="translate(-318,-174) scale(1,1)"/></g><g><g><path fill="none" stroke="none" transform="translate(-318,-174) scale(1,1)"/><text x="449.43" y="778.5" fill="#000" stroke="none" font-family="Arial" font-size="13" font-style="normal" font-weight="bold" text-decoration="none" transform="translate(-318,-174) scale(1,1)">IdentityAccessApplicationTests</text></g></g><g><path fill="none" stroke="#000" stroke-dasharray="3" stroke-miterlimit="10" d="M 532 743 L 428 512" transform="translate(-318,-174) scale(1,1)"/></g><g><path fill="none" stroke="#000" stroke-miterlimit="10" d="M 436.01050954093955 519.5386827028677 L 428 512 L 428.3336319567464 522.9949392775694" transform="translate(-318,-174) scale(1,1)"/></g><g><path fill="none" stroke="#000" stroke-dasharray="3" stroke-miterlimit="10" d="M 578 743 L 934 552" transform="translate(-318,-174) scale(1,1)"/></g><g><path fill="none" stroke="#000" stroke-miterlimit="10" d="M 927.0349362925742 560.5139818857865 L 934 552 L 923.0546618947438 553.095250547422" transform="translate(-318,-174) scale(1,1)"/></g><g><path fill="none" stroke="#000" stroke-dasharray="3" stroke-miterlimit="10" d="M 549 743 L 659 448" transform="translate(-318,-174) scale(1,1)"/></g><g><path fill="none" stroke="#000" stroke-miterlimit="10" d="M 659.393574576473 458.9929567929995 L 659 448 L 651.5051049583061 456.0514935455474" transform="translate(-318,-174) scale(1,1)"/></g><g><path fill="none" stroke="#000" stroke-dasharray="3" stroke-miterlimit="10" d="M 557 743 L 650 624" transform="translate(-318,-174) scale(1,1)"/></g><g><path fill="none" stroke="#000" stroke-miterlimit="10" d="M 647.0588840510607 634.5995206011826 L 650 624 L 640.4253240738263 629.4153098626717" transform="translate(-318,-174) scale(1,1)"/></g><g transform="translate(-318,-174) scale(1,1)"><rect width="36.651" height="15" x="933" y="355" fill="silver" stroke="none" opacity=".2"/></g><g transform="translate(-318,-174) scale(1,1)"><rect width="91.627" height="25" x="933" y="369" fill="silver" stroke="none" opacity=".2"/></g><g transform="translate(-318,-174) scale(1,1)"><rect width="91.627" height="24" x="926" y="363" fill="#fff" stroke="none"/></g><g><path fill="none" stroke="#000" stroke-miterlimit="10" d="M 926 363 L 1017.62744140625 363 L 1017.62744140625 387 L 926 387 L 926 363 Z Z" transform="translate(-318,-174) scale(1,1)"/></g><g transform="translate(-318,-174) scale(1,1)"><rect width="36.651" height="15" x="926" y="348" fill="#fff" stroke="none"/></g><g><path fill="none" stroke="#000" stroke-miterlimit="10" d="M 926 348 L 962.6509765625 348 L 962.6509765625 363 L 926 363 L 926 348 Z Z" transform="translate(-318,-174) scale(1,1)"/></g><g transform="translate(-318,-174) scale(1,1)"><rect width="91.627" height="25" x="926" y="362" fill="#fff" stroke="none"/></g><g><path fill="none" stroke="#000" stroke-miterlimit="10" d="M 926 362 L 1017.62744140625 362 L 1017.62744140625 387 L 926 387 L 926 362 Z Z" transform="translate(-318,-174) scale(1,1)"/></g><g><g><path fill="none" stroke="none" transform="translate(-318,-174) scale(1,1)"/><text x="935.814" y="382.5" fill="#000" stroke="none" font-family="Arial" font-size="13" font-style="normal" font-weight="bold" text-decoration="none" transform="translate(-318,-174) scale(1,1)">EthereumKit</text></g></g><g><path fill="none" stroke="#000" stroke-dasharray="3" stroke-miterlimit="10" d="M 973 511 L 971 388" transform="translate(-318,-174) scale(1,1)"/></g><g><path fill="none" stroke="#000" stroke-miterlimit="10" d="M 975.3741862880124 398.09289325801893 L 971 388 L 966.9562635218897 398.229770050964" transform="translate(-318,-174) scale(1,1)"/></g><g transform="translate(-318,-174) scale(1,1)"><rect width="19.832" height="15" x="895" y="271" fill="silver" stroke="none" opacity=".2"/></g><g transform="translate(-318,-174) scale(1,1)"><rect width="49.581" height="25" x="895" y="285" fill="silver" stroke="none" opacity=".2"/></g><g transform="translate(-318,-174) scale(1,1)"><rect width="49.581" height="24" x="888" y="279" fill="#fff" stroke="none"/></g><g><path fill="none" stroke="#000" stroke-miterlimit="10" d="M 888 279 L 937.58056640625 279 L 937.58056640625 303 L 888 303 L 888 279 Z Z" transform="translate(-318,-174) scale(1,1)"/></g><g transform="translate(-318,-174) scale(1,1)"><rect width="19.832" height="15" x="888" y="264" fill="#fff" stroke="none"/></g><g><path fill="none" stroke="#000" stroke-miterlimit="10" d="M 888 264 L 907.8322265625 264 L 907.8322265625 279 L 888 279 L 888 264 Z Z" transform="translate(-318,-174) scale(1,1)"/></g><g transform="translate(-318,-174) scale(1,1)"><rect width="49.581" height="25" x="888" y="278" fill="#fff" stroke="none"/></g><g><path fill="none" stroke="#000" stroke-miterlimit="10" d="M 888 278 L 937.58056640625 278 L 937.58056640625 303 L 888 303 L 888 278 Z Z" transform="translate(-318,-174) scale(1,1)"/></g><g><g><path fill="none" stroke="none" transform="translate(-318,-174) scale(1,1)"/><text x="893.79" y="298.5" fill="#000" stroke="none" font-family="Arial" font-size="13" font-style="normal" font-weight="bold" text-decoration="none" transform="translate(-318,-174) scale(1,1)">APIKit</text></g></g><g><path fill="none" stroke="#000" stroke-dasharray="3" stroke-miterlimit="10" d="M 957 347 L 927 304" transform="translate(-318,-174) scale(1,1)"/></g><g><path fill="none" stroke="#000" stroke-miterlimit="10" d="M 936.2672344962274 309.9260749904076 L 927 304 L 929.362556543591 314.74329216666547" transform="translate(-318,-174) scale(1,1)"/></g><g transform="translate(-318,-174) scale(1,1)"><rect width="20.388" height="15" x="903" y="191" fill="silver" stroke="none" opacity=".2"/></g><g transform="translate(-318,-174) scale(1,1)"><rect width="50.971" height="25" x="903" y="205" fill="silver" stroke="none" opacity=".2"/></g><g transform="translate(-318,-174) scale(1,1)"><rect width="50.971" height="24" x="896" y="199" fill="#fff" stroke="none"/></g><g><path fill="none" stroke="#000" stroke-miterlimit="10" d="M 896 199 L 946.970703125 199 L 946.970703125 223 L 896 223 L 896 199 Z Z" transform="translate(-318,-174) scale(1,1)"/></g><g transform="translate(-318,-174) scale(1,1)"><rect width="20.388" height="15" x="896" y="184" fill="#fff" stroke="none"/></g><g><path fill="none" stroke="#000" stroke-miterlimit="10" d="M 896 184 L 916.38828125 184 L 916.38828125 199 L 896 199 L 896 184 Z Z" transform="translate(-318,-174) scale(1,1)"/></g><g transform="translate(-318,-174) scale(1,1)"><rect width="50.971" height="25" x="896" y="198" fill="#fff" stroke="none"/></g><g><path fill="none" stroke="#000" stroke-miterlimit="10" d="M 896 198 L 946.970703125 198 L 946.970703125 223 L 896 223 L 896 198 Z Z" transform="translate(-318,-174) scale(1,1)"/></g><g><g><path fill="none" stroke="none" transform="translate(-318,-174) scale(1,1)"/><text x="902.985" y="218.5" fill="#000" stroke="none" font-family="Arial" font-size="13" font-style="normal" font-weight="bold" text-decoration="none" transform="translate(-318,-174) scale(1,1)">Result</text></g></g><g><path fill="none" stroke="#000" stroke-dasharray="3" stroke-miterlimit="10" d="M 914 263 L 919 224" transform="translate(-318,-174) scale(1,1)"/></g><g><path fill="none" stroke="#000" stroke-miterlimit="10" d="M 921.8830138825103 234.6154713015133 L 919 224 L 913.5323269237867 233.54487040936925" transform="translate(-318,-174) scale(1,1)"/></g><g transform="translate(-318,-174) scale(1,1)"><rect width="34.985" height="15" x="1008" y="267" fill="silver" stroke="none" opacity=".2"/></g><g transform="translate(-318,-174) scale(1,1)"><rect width="87.463" height="25" x="1008" y="281" fill="silver" stroke="none" opacity=".2"/></g><g transform="translate(-318,-174) scale(1,1)"><rect width="87.463" height="24" x="1001" y="275" fill="#fff" stroke="none"/></g><g><path fill="none" stroke="#000" stroke-miterlimit="10" d="M 1001 275 L 1088.46337890625 275 L 1088.46337890625 299 L 1001 299 L 1001 275 Z Z" transform="translate(-318,-174) scale(1,1)"/></g><g transform="translate(-318,-174) scale(1,1)"><rect width="34.985" height="15" x="1001" y="260" fill="#fff" stroke="none"/></g><g><path fill="none" stroke="#000" stroke-miterlimit="10" d="M 1001 260 L 1035.9853515625 260 L 1035.9853515625 275 L 1001 275 L 1001 260 Z Z" transform="translate(-318,-174) scale(1,1)"/></g><g transform="translate(-318,-174) scale(1,1)"><rect width="87.463" height="25" x="1001" y="274" fill="#fff" stroke="none"/></g><g><path fill="none" stroke="#000" stroke-miterlimit="10" d="M 1001 274 L 1088.46337890625 274 L 1088.46337890625 299 L 1001 299 L 1001 274 Z Z" transform="translate(-318,-174) scale(1,1)"/></g><g><g><path fill="none" stroke="none" transform="translate(-318,-174) scale(1,1)"/><text x="1011.232" y="294.5" fill="#000" stroke="none" font-family="Arial" font-size="13" font-style="normal" font-weight="bold" text-decoration="none" transform="translate(-318,-174) scale(1,1)">CryptoSwift</text></g></g><g><path fill="none" stroke="#000" stroke-dasharray="3" stroke-miterlimit="10" d="M 988 347 L 1027 300" transform="translate(-318,-174) scale(1,1)"/></g><g><path fill="none" stroke="#000" stroke-miterlimit="10" d="M 1023.7498792342428 310.5088874295995 L 1027 300 L 1017.270912002662 305.1327231310537" transform="translate(-318,-174) scale(1,1)"/></g><g><path fill="none" stroke="#000" stroke-dasharray="3" stroke-miterlimit="10" d="M 863 523 L 511 498" transform="translate(-318,-174) scale(1,1)"/></g><g><path fill="none" stroke="#000" stroke-miterlimit="10" d="M 521.4353602286537 494.52102645910736 L 511 498 L 520.8389197641393 502.91890819947173" transform="translate(-318,-174) scale(1,1)"/></g></g></svg>