<svg xmlns="http://www.w3.org/2000/svg" xmlns:xlink="http://www.w3.org/1999/xlink" width="893.881" height="236" version="1.1"><g><g transform="translate(-331,-389) scale(1,1)"><rect width="29.422" height="15" x="495" y="583" fill="silver" stroke="none" opacity=".2"/></g><g transform="translate(-331,-389) scale(1,1)"><rect width="73.556" height="25" x="495" y="597" fill="silver" stroke="none" opacity=".2"/></g><g transform="translate(-331,-389) scale(1,1)"><rect width="73.556" height="24" x="488" y="591" fill="#fff" stroke="none"/></g><g><path fill="none" stroke="#000" stroke-miterlimit="10" d="M 488 591 L 561.5556640625 591 L 561.5556640625 615 L 488 615 L 488 591 Z Z" transform="translate(-331,-389) scale(1,1)"/></g><g transform="translate(-331,-389) scale(1,1)"><rect width="29.422" height="15" x="488" y="576" fill="#fff" stroke="none"/></g><g><path fill="none" stroke="#000" stroke-miterlimit="10" d="M 488 576 L 517.422265625 576 L 517.422265625 591 L 488 591 L 488 576 Z Z" transform="translate(-331,-389) scale(1,1)"/></g><g transform="translate(-331,-389) scale(1,1)"><rect width="73.556" height="25" x="488" y="590" fill="#fff" stroke="none"/></g><g><path fill="none" stroke="#000" stroke-miterlimit="10" d="M 488 590 L 561.5556640625 590 L 561.5556640625 615 L 488 615 L 488 590 Z Z" transform="translate(-331,-389) scale(1,1)"/></g><g><g><path fill="none" stroke="none" transform="translate(-331,-389) scale(1,1)"/><text x="495.778" y="610.5" fill="#000" stroke="none" font-family="Arial" font-size="13" font-style="normal" font-weight="bold" text-decoration="none" transform="translate(-331,-389) scale(1,1)">safeTests</text></g></g><g transform="translate(-331,-389) scale(1,1)"><rect width="34.975" height="15" x="648" y="581" fill="silver" stroke="none" opacity=".2"/></g><g transform="translate(-331,-389) scale(1,1)"><rect width="87.438" height="25" x="648" y="595" fill="silver" stroke="none" opacity=".2"/></g><g transform="translate(-331,-389) scale(1,1)"><rect width="87.438" height="24" x="641" y="589" fill="#fff" stroke="none"/></g><g><path fill="none" stroke="#000" stroke-miterlimit="10" d="M 641 589 L 728.43798828125 589 L 728.43798828125 613 L 641 613 L 641 589 Z Z" transform="translate(-331,-389) scale(1,1)"/></g><g transform="translate(-331,-389) scale(1,1)"><rect width="34.975" height="15" x="641" y="574" fill="#fff" stroke="none"/></g><g><path fill="none" stroke="#000" stroke-miterlimit="10" d="M 641 574 L 675.9751953125 574 L 675.9751953125 589 L 641 589 L 641 574 Z Z" transform="translate(-331,-389) scale(1,1)"/></g><g transform="translate(-331,-389) scale(1,1)"><rect width="87.438" height="25" x="641" y="588" fill="#fff" stroke="none"/></g><g><path fill="none" stroke="#000" stroke-miterlimit="10" d="M 641 588 L 728.43798828125 588 L 728.43798828125 613 L 641 613 L 641 588 Z Z" transform="translate(-331,-389) scale(1,1)"/></g><g><g><path fill="none" stroke="none" transform="translate(-331,-389) scale(1,1)"/><text x="649.219" y="608.5" fill="#000" stroke="none" font-family="Arial" font-size="13" font-style="normal" font-weight="bold" text-decoration="none" transform="translate(-331,-389) scale(1,1)">SafeUITests</text></g></g><g transform="translate(-331,-389) scale(1,1)"><rect width="42.465" height="15" x="888" y="557" fill="silver" stroke="none" opacity=".2"/></g><g transform="translate(-331,-389) scale(1,1)"><rect width="106.164" height="25" x="888" y="571" fill="silver" stroke="none" opacity=".2"/></g><g transform="translate(-331,-389) scale(1,1)"><rect width="106.164" height="24" x="881" y="565" fill="#fff" stroke="none"/></g><g><path fill="none" stroke="#000" stroke-miterlimit="10" d="M 881 565 L 987.16357421875 565 L 987.16357421875 589 L 881 589 L 881 565 Z Z" transform="translate(-331,-389) scale(1,1)"/></g><g transform="translate(-331,-389) scale(1,1)"><rect width="42.465" height="15" x="881" y="550" fill="#fff" stroke="none"/></g><g><path fill="none" stroke="#000" stroke-miterlimit="10" d="M 881 550 L 923.4654296875 550 L 923.4654296875 565 L 881 565 L 881 550 Z Z" transform="translate(-331,-389) scale(1,1)"/></g><g transform="translate(-331,-389) scale(1,1)"><rect width="106.164" height="25" x="881" y="564" fill="#fff" stroke="none"/></g><g><path fill="none" stroke="#000" stroke-miterlimit="10" d="M 881 564 L 987.16357421875 564 L 987.16357421875 589 L 881 589 L 881 564 Z Z" transform="translate(-331,-389) scale(1,1)"/></g><g><g><path fill="none" stroke="none" transform="translate(-331,-389) scale(1,1)"/><text x="890.582" y="584.5" fill="#000" stroke="none" font-family="Arial" font-size="13" font-style="normal" font-weight="bold" text-decoration="none" transform="translate(-331,-389) scale(1,1)">SafeUIKitTests</text></g></g><g transform="translate(-331,-389) scale(1,1)"><rect width="43.377" height="15" x="995" y="406" fill="silver" stroke="none" opacity=".2"/></g><g transform="translate(-331,-389) scale(1,1)"><rect width="108.442" height="25" x="995" y="420" fill="silver" stroke="none" opacity=".2"/></g><g transform="translate(-331,-389) scale(1,1)"><rect width="108.442" height="24" x="988" y="414" fill="#fff" stroke="none"/></g><g><path fill="none" stroke="#000" stroke-miterlimit="10" d="M 988 414 L 1096.4423828125 414 L 1096.4423828125 438 L 988 438 L 988 414 Z Z" transform="translate(-331,-389) scale(1,1)"/></g><g transform="translate(-331,-389) scale(1,1)"><rect width="43.377" height="15" x="988" y="399" fill="#fff" stroke="none"/></g><g><path fill="none" stroke="#000" stroke-miterlimit="10" d="M 988 399 L 1031.376953125 399 L 1031.376953125 414 L 988 414 L 988 399 Z Z" transform="translate(-331,-389) scale(1,1)"/></g><g transform="translate(-331,-389) scale(1,1)"><rect width="108.442" height="25" x="988" y="413" fill="#fff" stroke="none"/></g><g><path fill="none" stroke="#000" stroke-miterlimit="10" d="M 988 413 L 1096.4423828125 413 L 1096.4423828125 438 L 988 438 L 988 413 Z Z" transform="translate(-331,-389) scale(1,1)"/></g><g><g><path fill="none" stroke="none" transform="translate(-331,-389) scale(1,1)"/><text x="998.221" y="433.5" fill="#000" stroke="none" font-family="Arial" font-size="13" font-style="normal" font-weight="bold" text-decoration="none" transform="translate(-331,-389) scale(1,1)">SafeUIKitDemo</text></g></g><g transform="translate(-331,-389) scale(1,1)"><rect width="63.552" height="15" x="1063" y="527" fill="silver" stroke="none" opacity=".2"/></g><g transform="translate(-331,-389) scale(1,1)"><rect width="158.881" height="25" x="1063" y="541" fill="silver" stroke="none" opacity=".2"/></g><g transform="translate(-331,-389) scale(1,1)"><rect width="158.881" height="24" x="1056" y="535" fill="#fff" stroke="none"/></g><g><path fill="none" stroke="#000" stroke-miterlimit="10" d="M 1056 535 L 1214.880859375 535 L 1214.880859375 559 L 1056 559 L 1056 535 Z Z" transform="translate(-331,-389) scale(1,1)"/></g><g transform="translate(-331,-389) scale(1,1)"><rect width="63.552" height="15" x="1056" y="520" fill="#fff" stroke="none"/></g><g><path fill="none" stroke="#000" stroke-miterlimit="10" d="M 1056 520 L 1119.55234375 520 L 1119.55234375 535 L 1056 535 L 1056 520 Z Z" transform="translate(-331,-389) scale(1,1)"/></g><g transform="translate(-331,-389) scale(1,1)"><rect width="158.881" height="25" x="1056" y="534" fill="#fff" stroke="none"/></g><g><path fill="none" stroke="#000" stroke-miterlimit="10" d="M 1056 534 L 1214.880859375 534 L 1214.880859375 559 L 1056 559 L 1056 534 Z Z" transform="translate(-331,-389) scale(1,1)"/></g><g><g><path fill="none" stroke="none" transform="translate(-331,-389) scale(1,1)"/><text x="1068.44" y="554.5" fill="#000" stroke="none" font-family="Arial" font-size="13" font-style="normal" font-weight="bold" text-decoration="none" transform="translate(-331,-389) scale(1,1)">SafeUIKitDemoUITests</text></g></g><g><path fill="none" stroke="#000" stroke-dasharray="3" stroke-miterlimit="10" d="M 1120 519 L 1058 439" transform="translate(-331,-389) scale(1,1)"/></g><g><path fill="none" stroke="#000" stroke-miterlimit="10" d="M 1067.5526328595715 444.4540998753447 L 1058 439 L 1060.8981004660634 449.6113624803134" transform="translate(-331,-389) scale(1,1)"/></g><g transform="translate(-331,-389) scale(1,1)"><rect width="27.843" height="15" x="822" y="419" fill="silver" stroke="none" opacity=".2"/></g><g transform="translate(-331,-389) scale(1,1)"><rect width="69.607" height="25" x="822" y="433" fill="silver" stroke="none" opacity=".2"/></g><g transform="translate(-331,-389) scale(1,1)"><rect width="69.607" height="24" x="815" y="427" fill="#fff" stroke="none"/></g><g><path fill="none" stroke="#000" stroke-miterlimit="10" d="M 815 427 L 884.607421875 427 L 884.607421875 451 L 815 451 L 815 427 Z Z" transform="translate(-331,-389) scale(1,1)"/></g><g transform="translate(-331,-389) scale(1,1)"><rect width="27.843" height="15" x="815" y="412" fill="#fff" stroke="none"/></g><g><path fill="none" stroke="#000" stroke-miterlimit="10" d="M 815 412 L 842.84296875 412 L 842.84296875 427 L 815 427 L 815 412 Z Z" transform="translate(-331,-389) scale(1,1)"/></g><g transform="translate(-331,-389) scale(1,1)"><rect width="69.607" height="25" x="815" y="426" fill="#fff" stroke="none"/></g><g><path fill="none" stroke="#000" stroke-miterlimit="10" d="M 815 426 L 884.607421875 426 L 884.607421875 451 L 815 451 L 815 426 Z Z" transform="translate(-331,-389) scale(1,1)"/></g><g><g><path fill="none" stroke="none" transform="translate(-331,-389) scale(1,1)"/><text x="822.804" y="446.5" fill="#000" stroke="none" font-family="Arial" font-size="13" font-style="normal" font-weight="bold" text-decoration="none" transform="translate(-331,-389) scale(1,1)">SafeUIKit</text></g></g><g><path fill="none" stroke="#000" stroke-dasharray="3" stroke-miterlimit="10" d="M 987 422 L 886 429" transform="translate(-331,-389) scale(1,1)"/></g><g><path fill="none" stroke="#000" stroke-miterlimit="10" d="M 895.8473039161154 424.09789784034854 L 886 429 L 896.4294050546488 432.4967856963312" transform="translate(-331,-389) scale(1,1)"/></g><g><path fill="none" stroke="#000" stroke-dasharray="3" stroke-miterlimit="10" d="M 922 549 L 862 452" transform="translate(-331,-389) scale(1,1)"/></g><g><path fill="none" stroke="#000" stroke-miterlimit="10" d="M 870.9260955873325 458.4284381902452 L 862 452 L 863.7661104825612 462.8572949560831" transform="translate(-331,-389) scale(1,1)"/></g><g transform="translate(-331,-389) scale(1,1)"><rect width="19.6" height="15" x="593" y="434" fill="silver" stroke="none" opacity=".2"/></g><g transform="translate(-331,-389) scale(1,1)"><rect width="49" height="25" x="593" y="448" fill="silver" stroke="none" opacity=".2"/></g><g transform="translate(-331,-389) scale(1,1)"><rect width="49" height="24" x="586" y="442" fill="#fff" stroke="none"/></g><g><path fill="none" stroke="#000" stroke-miterlimit="10" d="M 586 442 L 635 442 L 635 466 L 586 466 L 586 442 Z Z" transform="translate(-331,-389) scale(1,1)"/></g><g transform="translate(-331,-389) scale(1,1)"><rect width="19.6" height="15" x="586" y="427" fill="#fff" stroke="none"/></g><g><path fill="none" stroke="#000" stroke-miterlimit="10" d="M 586 427 L 605.6 427 L 605.6 442 L 586 442 L 586 427 Z Z" transform="translate(-331,-389) scale(1,1)"/></g><g transform="translate(-331,-389) scale(1,1)"><rect width="49" height="25" x="586" y="441" fill="#fff" stroke="none"/></g><g><path fill="none" stroke="#000" stroke-miterlimit="10" d="M 586 441 L 635 441 L 635 466 L 586 466 L 586 441 Z Z" transform="translate(-331,-389) scale(1,1)"/></g><g><g><path fill="none" stroke="none" transform="translate(-331,-389) scale(1,1)"/><text x="598" y="461.5" fill="#000" stroke="none" font-family="Arial" font-size="13" font-style="normal" font-weight="bold" text-decoration="none" transform="translate(-331,-389) scale(1,1)">safe</text></g></g><g><path fill="none" stroke="#000" stroke-dasharray="3" stroke-miterlimit="10" d="M 636 444 L 814 433" transform="translate(-331,-389) scale(1,1)"/></g><g><path fill="none" stroke="#000" stroke-miterlimit="10" d="M 804.116318598988 437.828337391203 L 814 433 L 803.5970317470808 429.4253319694332" transform="translate(-331,-389) scale(1,1)"/></g><g><path fill="none" stroke="#000" stroke-dasharray="3" stroke-miterlimit="10" d="M 536 575 L 598 467" transform="translate(-331,-389) scale(1,1)"/></g><g><path fill="none" stroke="#000" stroke-miterlimit="10" d="M 596.5910515968565 477.90939340189357 L 598 467 L 589.2896169766846 473.717829082906" transform="translate(-331,-389) scale(1,1)"/></g><g><path fill="none" stroke="#000" stroke-dasharray="3" stroke-miterlimit="10" d="M 674 573 L 621 467" transform="translate(-331,-389) scale(1,1)"/></g><g><path fill="none" stroke="#000" stroke-miterlimit="10" d="M 629.3099935049528 474.2072191549614 L 621 467 L 621.7797792209975 477.97232629693906" transform="translate(-331,-389) scale(1,1)"/></g><g transform="translate(-331,-389) scale(1,1)"><rect width="60.198" height="15" x="348" y="426" fill="silver" stroke="none" opacity=".2"/></g><g transform="translate(-331,-389) scale(1,1)"><rect width="150.496" height="25" x="348" y="440" fill="silver" stroke="none" opacity=".2"/></g><g transform="translate(-331,-389) scale(1,1)"><rect width="150.496" height="24" x="341" y="434" fill="#fff" stroke="none"/></g><g><path fill="none" stroke="#000" stroke-miterlimit="10" d="M 341 434 L 491.49560546875 434 L 491.49560546875 458 L 341 458 L 341 434 Z Z" transform="translate(-331,-389) scale(1,1)"/></g><g transform="translate(-331,-389) scale(1,1)"><rect width="60.198" height="15" x="341" y="419" fill="#fff" stroke="none"/></g><g><path fill="none" stroke="#000" stroke-miterlimit="10" d="M 341 419 L 401.1982421875 419 L 401.1982421875 434 L 341 434 L 341 419 Z Z" transform="translate(-331,-389) scale(1,1)"/></g><g transform="translate(-331,-389) scale(1,1)"><rect width="150.496" height="25" x="341" y="433" fill="#fff" stroke="none"/></g><g><path fill="none" stroke="#000" stroke-miterlimit="10" d="M 341 433 L 491.49560546875 433 L 491.49560546875 458 L 341 458 L 341 433 Z Z" transform="translate(-331,-389) scale(1,1)"/></g><g><g><path fill="none" stroke="none" transform="translate(-331,-389) scale(1,1)"/><text x="354.748" y="453.5" fill="#000" stroke="none" font-family="Arial" font-size="13" font-style="normal" font-weight="bold" text-decoration="none" transform="translate(-331,-389) scale(1,1)">CommonTestSupport</text></g></g><g><path fill="none" stroke="#000" stroke-dasharray="3" stroke-miterlimit="10" d="M 510 575 L 430 459" transform="translate(-331,-389) scale(1,1)"/></g><g><path fill="none" stroke="#000" stroke-miterlimit="10" d="M 439.23501427508035 464.9761619237653 L 430 459 L 432.3043565965006 469.75592584002715" transform="translate(-331,-389) scale(1,1)"/></g></g></svg>